<mxfile host="Electron" agent="Mozilla/5.0 (Windows NT 10.0; Win64; x64) AppleWebKit/537.36 (KHTML, like Gecko) draw.io/26.2.15 Chrome/134.0.6998.205 Electron/35.2.1 Safari/537.36" version="26.2.15">
  <diagram id="C5RBs43oDa-KdzZeNtuy" name="Page-1">
    <mxGraphModel dx="2800" dy="1046" grid="1" gridSize="10" guides="1" tooltips="1" connect="1" arrows="1" fold="1" page="1" pageScale="1" pageWidth="1200" pageHeight="1920" background="none" math="0" shadow="1">
      <root>
        <mxCell id="WIyWlLk6GJQsqaUBKTNV-0" />
        <mxCell id="WIyWlLk6GJQsqaUBKTNV-1" parent="WIyWlLk6GJQsqaUBKTNV-0" />
        <mxCell id="96fxNzwvtjTMdbQjkT7S-181" style="edgeStyle=orthogonalEdgeStyle;rounded=0;orthogonalLoop=1;jettySize=auto;html=1;entryX=0.5;entryY=0;entryDx=0;entryDy=0;" edge="1" parent="WIyWlLk6GJQsqaUBKTNV-1" source="96fxNzwvtjTMdbQjkT7S-15" target="96fxNzwvtjTMdbQjkT7S-29">
          <mxGeometry relative="1" as="geometry" />
        </mxCell>
        <mxCell id="96fxNzwvtjTMdbQjkT7S-15" value="开始" style="swimlane;fontStyle=0;childLayout=stackLayout;horizontal=1;startSize=30;horizontalStack=0;resizeParent=1;resizeParentMax=0;resizeLast=0;collapsible=1;marginBottom=0;whiteSpace=wrap;html=1;fillColor=#a20025;fontColor=#ffffff;strokeColor=#6F0000;" vertex="1" parent="WIyWlLk6GJQsqaUBKTNV-1">
          <mxGeometry x="90" y="30" width="140" height="240" as="geometry" />
        </mxCell>
        <mxCell id="96fxNzwvtjTMdbQjkT7S-16" value="rawQuery&amp;nbsp;" style="text;strokeColor=none;fillColor=none;align=left;verticalAlign=middle;spacingLeft=4;spacingRight=4;overflow=hidden;points=[[0,0.5],[1,0.5]];portConstraint=eastwest;rotatable=0;whiteSpace=wrap;html=1;" vertex="1" parent="96fxNzwvtjTMdbQjkT7S-15">
          <mxGeometry y="30" width="140" height="30" as="geometry" />
        </mxCell>
        <mxCell id="96fxNzwvtjTMdbQjkT7S-17" value="chatHistory&amp;nbsp;" style="text;strokeColor=none;fillColor=none;align=left;verticalAlign=middle;spacingLeft=4;spacingRight=4;overflow=hidden;points=[[0,0.5],[1,0.5]];portConstraint=eastwest;rotatable=0;whiteSpace=wrap;html=1;" vertex="1" parent="96fxNzwvtjTMdbQjkT7S-15">
          <mxGeometry y="60" width="140" height="30" as="geometry" />
        </mxCell>
        <mxCell id="96fxNzwvtjTMdbQjkT7S-25" value="fileUris" style="text;strokeColor=none;fillColor=none;align=left;verticalAlign=middle;spacingLeft=4;spacingRight=4;overflow=hidden;points=[[0,0.5],[1,0.5]];portConstraint=eastwest;rotatable=0;whiteSpace=wrap;html=1;" vertex="1" parent="96fxNzwvtjTMdbQjkT7S-15">
          <mxGeometry y="90" width="140" height="30" as="geometry" />
        </mxCell>
        <mxCell id="96fxNzwvtjTMdbQjkT7S-24" value="fileName" style="text;strokeColor=none;fillColor=none;align=left;verticalAlign=middle;spacingLeft=4;spacingRight=4;overflow=hidden;points=[[0,0.5],[1,0.5]];portConstraint=eastwest;rotatable=0;whiteSpace=wrap;html=1;" vertex="1" parent="96fxNzwvtjTMdbQjkT7S-15">
          <mxGeometry y="120" width="140" height="30" as="geometry" />
        </mxCell>
        <mxCell id="96fxNzwvtjTMdbQjkT7S-26" value="end_user_id" style="text;strokeColor=none;fillColor=none;align=left;verticalAlign=middle;spacingLeft=4;spacingRight=4;overflow=hidden;points=[[0,0.5],[1,0.5]];portConstraint=eastwest;rotatable=0;whiteSpace=wrap;html=1;" vertex="1" parent="96fxNzwvtjTMdbQjkT7S-15">
          <mxGeometry y="150" width="140" height="30" as="geometry" />
        </mxCell>
        <mxCell id="96fxNzwvtjTMdbQjkT7S-23" value="conversation_id" style="text;strokeColor=none;fillColor=none;align=left;verticalAlign=middle;spacingLeft=4;spacingRight=4;overflow=hidden;points=[[0,0.5],[1,0.5]];portConstraint=eastwest;rotatable=0;whiteSpace=wrap;html=1;" vertex="1" parent="96fxNzwvtjTMdbQjkT7S-15">
          <mxGeometry y="180" width="140" height="30" as="geometry" />
        </mxCell>
        <mxCell id="96fxNzwvtjTMdbQjkT7S-18" value="request_id" style="text;strokeColor=none;fillColor=none;align=left;verticalAlign=middle;spacingLeft=4;spacingRight=4;overflow=hidden;points=[[0,0.5],[1,0.5]];portConstraint=eastwest;rotatable=0;whiteSpace=wrap;html=1;" vertex="1" parent="96fxNzwvtjTMdbQjkT7S-15">
          <mxGeometry y="210" width="140" height="30" as="geometry" />
        </mxCell>
        <mxCell id="96fxNzwvtjTMdbQjkT7S-29" value="意图识别" style="swimlane;fontStyle=0;childLayout=stackLayout;horizontal=1;startSize=30;horizontalStack=0;resizeParent=1;resizeParentMax=0;resizeLast=0;collapsible=1;marginBottom=0;whiteSpace=wrap;html=1;fillColor=#a20025;fontColor=#ffffff;strokeColor=#6F0000;" vertex="1" parent="WIyWlLk6GJQsqaUBKTNV-1">
          <mxGeometry x="90" y="300" width="140" height="180" as="geometry" />
        </mxCell>
        <mxCell id="96fxNzwvtjTMdbQjkT7S-30" value="输入 - query" style="text;strokeColor=none;fillColor=none;align=left;verticalAlign=middle;spacingLeft=4;spacingRight=4;overflow=hidden;points=[[0,0.5],[1,0.5]];portConstraint=eastwest;rotatable=0;whiteSpace=wrap;html=1;" vertex="1" parent="96fxNzwvtjTMdbQjkT7S-29">
          <mxGeometry y="30" width="140" height="30" as="geometry" />
        </mxCell>
        <mxCell id="96fxNzwvtjTMdbQjkT7S-33" value="确定意图" style="shape=process;whiteSpace=wrap;html=1;backgroundOutline=1;fillColor=#0050ef;fontColor=#ffffff;strokeColor=#001DBC;" vertex="1" parent="96fxNzwvtjTMdbQjkT7S-29">
          <mxGeometry y="60" width="140" height="60" as="geometry" />
        </mxCell>
        <mxCell id="96fxNzwvtjTMdbQjkT7S-31" value="输出 - classification" style="text;strokeColor=none;fillColor=none;align=left;verticalAlign=middle;spacingLeft=4;spacingRight=4;overflow=hidden;points=[[0,0.5],[1,0.5]];portConstraint=eastwest;rotatable=0;whiteSpace=wrap;html=1;" vertex="1" parent="96fxNzwvtjTMdbQjkT7S-29">
          <mxGeometry y="120" width="140" height="30" as="geometry" />
        </mxCell>
        <mxCell id="96fxNzwvtjTMdbQjkT7S-32" value="&amp;nbsp; &amp;nbsp; &amp;nbsp; &amp;nbsp; - classificationID" style="text;strokeColor=none;fillColor=none;align=left;verticalAlign=middle;spacingLeft=4;spacingRight=4;overflow=hidden;points=[[0,0.5],[1,0.5]];portConstraint=eastwest;rotatable=0;whiteSpace=wrap;html=1;" vertex="1" parent="96fxNzwvtjTMdbQjkT7S-29">
          <mxGeometry y="150" width="140" height="30" as="geometry" />
        </mxCell>
        <mxCell id="96fxNzwvtjTMdbQjkT7S-37" value="" style="endArrow=none;dashed=1;html=1;rounded=0;" edge="1" parent="WIyWlLk6GJQsqaUBKTNV-1">
          <mxGeometry width="50" height="50" relative="1" as="geometry">
            <mxPoint x="230" y="390" as="sourcePoint" />
            <mxPoint x="269" y="390" as="targetPoint" />
          </mxGeometry>
        </mxCell>
        <mxCell id="96fxNzwvtjTMdbQjkT7S-38" value="意图类别" style="swimlane;fontStyle=0;childLayout=stackLayout;horizontal=1;startSize=30;horizontalStack=0;resizeParent=1;resizeParentMax=0;resizeLast=0;collapsible=1;marginBottom=0;whiteSpace=wrap;html=1;fillColor=#a20025;fontColor=#ffffff;strokeColor=#6F0000;" vertex="1" parent="WIyWlLk6GJQsqaUBKTNV-1">
          <mxGeometry x="270" y="330" width="140" height="120" as="geometry" />
        </mxCell>
        <mxCell id="96fxNzwvtjTMdbQjkT7S-39" value="前期调研" style="text;strokeColor=none;fillColor=none;align=left;verticalAlign=middle;spacingLeft=4;spacingRight=4;overflow=hidden;points=[[0,0.5],[1,0.5]];portConstraint=eastwest;rotatable=0;whiteSpace=wrap;html=1;" vertex="1" parent="96fxNzwvtjTMdbQjkT7S-38">
          <mxGeometry y="30" width="140" height="30" as="geometry" />
        </mxCell>
        <mxCell id="96fxNzwvtjTMdbQjkT7S-40" value="策略制定" style="text;strokeColor=none;fillColor=none;align=left;verticalAlign=middle;spacingLeft=4;spacingRight=4;overflow=hidden;points=[[0,0.5],[1,0.5]];portConstraint=eastwest;rotatable=0;whiteSpace=wrap;html=1;" vertex="1" parent="96fxNzwvtjTMdbQjkT7S-38">
          <mxGeometry y="60" width="140" height="30" as="geometry" />
        </mxCell>
        <mxCell id="96fxNzwvtjTMdbQjkT7S-41" value="落地执行" style="text;strokeColor=none;fillColor=none;align=left;verticalAlign=middle;spacingLeft=4;spacingRight=4;overflow=hidden;points=[[0,0.5],[1,0.5]];portConstraint=eastwest;rotatable=0;whiteSpace=wrap;html=1;" vertex="1" parent="96fxNzwvtjTMdbQjkT7S-38">
          <mxGeometry y="90" width="140" height="30" as="geometry" />
        </mxCell>
        <mxCell id="96fxNzwvtjTMdbQjkT7S-42" value="" style="endArrow=none;dashed=1;html=1;rounded=0;" edge="1" parent="WIyWlLk6GJQsqaUBKTNV-1">
          <mxGeometry width="50" height="50" relative="1" as="geometry">
            <mxPoint x="10" y="389.58" as="sourcePoint" />
            <mxPoint x="90" y="389.58" as="targetPoint" />
          </mxGeometry>
        </mxCell>
        <mxCell id="96fxNzwvtjTMdbQjkT7S-43" value="意图类别" style="swimlane;fontStyle=0;childLayout=stackLayout;horizontal=1;startSize=30;horizontalStack=0;resizeParent=1;resizeParentMax=0;resizeLast=0;collapsible=1;marginBottom=0;whiteSpace=wrap;html=1;fillColor=#a20025;fontColor=#ffffff;strokeColor=#6F0000;" vertex="1" parent="WIyWlLk6GJQsqaUBKTNV-1">
          <mxGeometry x="-90" y="360" width="140" height="60" as="geometry" />
        </mxCell>
        <mxCell id="96fxNzwvtjTMdbQjkT7S-44" value="其他意图" style="text;strokeColor=none;fillColor=none;align=left;verticalAlign=middle;spacingLeft=4;spacingRight=4;overflow=hidden;points=[[0,0.5],[1,0.5]];portConstraint=eastwest;rotatable=0;whiteSpace=wrap;html=1;" vertex="1" parent="96fxNzwvtjTMdbQjkT7S-43">
          <mxGeometry y="30" width="140" height="30" as="geometry" />
        </mxCell>
        <mxCell id="96fxNzwvtjTMdbQjkT7S-47" value="信息输出" style="rounded=0;whiteSpace=wrap;html=1;" vertex="1" parent="WIyWlLk6GJQsqaUBKTNV-1">
          <mxGeometry x="280" y="470" width="120" height="60" as="geometry" />
        </mxCell>
        <mxCell id="96fxNzwvtjTMdbQjkT7S-49" value="信息输出" style="rounded=0;whiteSpace=wrap;html=1;" vertex="1" parent="WIyWlLk6GJQsqaUBKTNV-1">
          <mxGeometry x="-80" y="450" width="120" height="60" as="geometry" />
        </mxCell>
        <mxCell id="96fxNzwvtjTMdbQjkT7S-51" value="" style="endArrow=classic;html=1;rounded=0;exitX=0.5;exitY=1;exitDx=0;exitDy=0;" edge="1" parent="WIyWlLk6GJQsqaUBKTNV-1" source="96fxNzwvtjTMdbQjkT7S-47">
          <mxGeometry width="50" height="50" relative="1" as="geometry">
            <mxPoint x="200" y="650" as="sourcePoint" />
            <mxPoint x="180" y="580" as="targetPoint" />
            <Array as="points">
              <mxPoint x="340" y="550" />
              <mxPoint x="180" y="550" />
            </Array>
          </mxGeometry>
        </mxCell>
        <mxCell id="96fxNzwvtjTMdbQjkT7S-52" value="" style="endArrow=none;html=1;rounded=0;entryX=0.5;entryY=1;entryDx=0;entryDy=0;" edge="1" parent="WIyWlLk6GJQsqaUBKTNV-1" target="96fxNzwvtjTMdbQjkT7S-49">
          <mxGeometry width="50" height="50" relative="1" as="geometry">
            <mxPoint x="-20" y="550" as="sourcePoint" />
            <mxPoint x="-50" y="520" as="targetPoint" />
            <Array as="points">
              <mxPoint x="180" y="550" />
              <mxPoint x="-20" y="550" />
            </Array>
          </mxGeometry>
        </mxCell>
        <mxCell id="96fxNzwvtjTMdbQjkT7S-182" style="edgeStyle=orthogonalEdgeStyle;rounded=0;orthogonalLoop=1;jettySize=auto;html=1;entryX=0.5;entryY=0;entryDx=0;entryDy=0;" edge="1" parent="WIyWlLk6GJQsqaUBKTNV-1" source="96fxNzwvtjTMdbQjkT7S-53" target="96fxNzwvtjTMdbQjkT7S-54">
          <mxGeometry relative="1" as="geometry">
            <Array as="points">
              <mxPoint x="440" y="610" />
              <mxPoint x="440" y="20" />
              <mxPoint x="690" y="20" />
            </Array>
          </mxGeometry>
        </mxCell>
        <mxCell id="96fxNzwvtjTMdbQjkT7S-53" value="收集用户输入信息" style="shape=process;whiteSpace=wrap;html=1;backgroundOutline=1;fillColor=#0050ef;fontColor=#ffffff;strokeColor=#001DBC;" vertex="1" parent="WIyWlLk6GJQsqaUBKTNV-1">
          <mxGeometry x="120" y="580" width="120" height="60" as="geometry" />
        </mxCell>
        <mxCell id="96fxNzwvtjTMdbQjkT7S-67" value="" style="edgeStyle=orthogonalEdgeStyle;rounded=0;orthogonalLoop=1;jettySize=auto;html=1;" edge="1" parent="WIyWlLk6GJQsqaUBKTNV-1" source="96fxNzwvtjTMdbQjkT7S-54" target="96fxNzwvtjTMdbQjkT7S-66">
          <mxGeometry relative="1" as="geometry" />
        </mxCell>
        <mxCell id="96fxNzwvtjTMdbQjkT7S-54" value="写入记忆变量" style="swimlane;fontStyle=0;childLayout=stackLayout;horizontal=1;startSize=30;horizontalStack=0;resizeParent=1;resizeParentMax=0;resizeLast=0;collapsible=1;marginBottom=0;whiteSpace=wrap;html=1;fillColor=#a20025;fontColor=#ffffff;strokeColor=#6F0000;" vertex="1" parent="WIyWlLk6GJQsqaUBKTNV-1">
          <mxGeometry x="620" y="40" width="140" height="180" as="geometry" />
        </mxCell>
        <mxCell id="96fxNzwvtjTMdbQjkT7S-55" value="Target_Country" style="text;strokeColor=none;fillColor=none;align=left;verticalAlign=middle;spacingLeft=4;spacingRight=4;overflow=hidden;points=[[0,0.5],[1,0.5]];portConstraint=eastwest;rotatable=0;whiteSpace=wrap;html=1;" vertex="1" parent="96fxNzwvtjTMdbQjkT7S-54">
          <mxGeometry y="30" width="140" height="30" as="geometry" />
        </mxCell>
        <mxCell id="96fxNzwvtjTMdbQjkT7S-56" value="Origin_Country" style="text;strokeColor=none;fillColor=none;align=left;verticalAlign=middle;spacingLeft=4;spacingRight=4;overflow=hidden;points=[[0,0.5],[1,0.5]];portConstraint=eastwest;rotatable=0;whiteSpace=wrap;html=1;" vertex="1" parent="96fxNzwvtjTMdbQjkT7S-54">
          <mxGeometry y="60" width="140" height="30" as="geometry" />
        </mxCell>
        <mxCell id="96fxNzwvtjTMdbQjkT7S-57" value="Demand" style="text;strokeColor=none;fillColor=none;align=left;verticalAlign=middle;spacingLeft=4;spacingRight=4;overflow=hidden;points=[[0,0.5],[1,0.5]];portConstraint=eastwest;rotatable=0;whiteSpace=wrap;html=1;" vertex="1" parent="96fxNzwvtjTMdbQjkT7S-54">
          <mxGeometry y="90" width="140" height="30" as="geometry" />
        </mxCell>
        <mxCell id="96fxNzwvtjTMdbQjkT7S-59" value="Request" style="text;strokeColor=none;fillColor=none;align=left;verticalAlign=middle;spacingLeft=4;spacingRight=4;overflow=hidden;points=[[0,0.5],[1,0.5]];portConstraint=eastwest;rotatable=0;whiteSpace=wrap;html=1;" vertex="1" parent="96fxNzwvtjTMdbQjkT7S-54">
          <mxGeometry y="120" width="140" height="30" as="geometry" />
        </mxCell>
        <mxCell id="96fxNzwvtjTMdbQjkT7S-60" value="Industry" style="text;strokeColor=none;fillColor=none;align=left;verticalAlign=middle;spacingLeft=4;spacingRight=4;overflow=hidden;points=[[0,0.5],[1,0.5]];portConstraint=eastwest;rotatable=0;whiteSpace=wrap;html=1;" vertex="1" parent="96fxNzwvtjTMdbQjkT7S-54">
          <mxGeometry y="150" width="140" height="30" as="geometry" />
        </mxCell>
        <mxCell id="96fxNzwvtjTMdbQjkT7S-63" value="" style="endArrow=classic;html=1;rounded=0;" edge="1" parent="WIyWlLk6GJQsqaUBKTNV-1">
          <mxGeometry width="50" height="50" relative="1" as="geometry">
            <mxPoint x="-20.16999999999996" y="420" as="sourcePoint" />
            <mxPoint x="-20.16999999999996" y="450" as="targetPoint" />
          </mxGeometry>
        </mxCell>
        <mxCell id="96fxNzwvtjTMdbQjkT7S-64" value="" style="endArrow=classic;html=1;rounded=0;" edge="1" parent="WIyWlLk6GJQsqaUBKTNV-1">
          <mxGeometry width="50" height="50" relative="1" as="geometry">
            <mxPoint x="339.83000000000004" y="450" as="sourcePoint" />
            <mxPoint x="340" y="470" as="targetPoint" />
          </mxGeometry>
        </mxCell>
        <mxCell id="96fxNzwvtjTMdbQjkT7S-69" value="" style="edgeStyle=orthogonalEdgeStyle;rounded=0;orthogonalLoop=1;jettySize=auto;html=1;" edge="1" parent="WIyWlLk6GJQsqaUBKTNV-1" source="96fxNzwvtjTMdbQjkT7S-66" target="96fxNzwvtjTMdbQjkT7S-68">
          <mxGeometry relative="1" as="geometry" />
        </mxCell>
        <mxCell id="96fxNzwvtjTMdbQjkT7S-71" value="" style="edgeStyle=orthogonalEdgeStyle;rounded=0;orthogonalLoop=1;jettySize=auto;html=1;" edge="1" parent="WIyWlLk6GJQsqaUBKTNV-1" source="96fxNzwvtjTMdbQjkT7S-66" target="96fxNzwvtjTMdbQjkT7S-70">
          <mxGeometry relative="1" as="geometry" />
        </mxCell>
        <mxCell id="96fxNzwvtjTMdbQjkT7S-183" style="edgeStyle=orthogonalEdgeStyle;rounded=0;orthogonalLoop=1;jettySize=auto;html=1;entryX=0.5;entryY=0;entryDx=0;entryDy=0;" edge="1" parent="WIyWlLk6GJQsqaUBKTNV-1" source="96fxNzwvtjTMdbQjkT7S-66" target="96fxNzwvtjTMdbQjkT7S-100">
          <mxGeometry relative="1" as="geometry">
            <Array as="points">
              <mxPoint x="690" y="300" />
              <mxPoint x="530" y="300" />
            </Array>
          </mxGeometry>
        </mxCell>
        <mxCell id="96fxNzwvtjTMdbQjkT7S-184" style="edgeStyle=orthogonalEdgeStyle;rounded=0;orthogonalLoop=1;jettySize=auto;html=1;entryX=0.5;entryY=0;entryDx=0;entryDy=0;" edge="1" parent="WIyWlLk6GJQsqaUBKTNV-1" source="96fxNzwvtjTMdbQjkT7S-66" target="96fxNzwvtjTMdbQjkT7S-81">
          <mxGeometry relative="1" as="geometry">
            <Array as="points">
              <mxPoint x="690" y="300" />
              <mxPoint x="750" y="300" />
            </Array>
          </mxGeometry>
        </mxCell>
        <mxCell id="96fxNzwvtjTMdbQjkT7S-66" value="分支器" style="shape=step;perimeter=stepPerimeter;whiteSpace=wrap;html=1;fixedSize=1;fontStyle=0;startSize=30;horizontal=1;" vertex="1" parent="WIyWlLk6GJQsqaUBKTNV-1">
          <mxGeometry x="620" y="230" width="140" height="40" as="geometry" />
        </mxCell>
        <mxCell id="96fxNzwvtjTMdbQjkT7S-68" value="若变量&lt;br&gt;不为空" style="rhombus;whiteSpace=wrap;html=1;fontStyle=0;startSize=30;horizontal=1;" vertex="1" parent="WIyWlLk6GJQsqaUBKTNV-1">
          <mxGeometry x="790" y="210" width="80" height="80" as="geometry" />
        </mxCell>
        <mxCell id="96fxNzwvtjTMdbQjkT7S-75" value="" style="edgeStyle=orthogonalEdgeStyle;rounded=0;orthogonalLoop=1;jettySize=auto;html=1;" edge="1" parent="WIyWlLk6GJQsqaUBKTNV-1" source="96fxNzwvtjTMdbQjkT7S-70" target="96fxNzwvtjTMdbQjkT7S-74">
          <mxGeometry relative="1" as="geometry" />
        </mxCell>
        <mxCell id="96fxNzwvtjTMdbQjkT7S-70" value="若有变&lt;br&gt;量为空" style="rhombus;whiteSpace=wrap;html=1;fontStyle=0;startSize=30;horizontal=1;" vertex="1" parent="WIyWlLk6GJQsqaUBKTNV-1">
          <mxGeometry x="520" y="210" width="80" height="80" as="geometry" />
        </mxCell>
        <mxCell id="96fxNzwvtjTMdbQjkT7S-76" value="" style="edgeStyle=orthogonalEdgeStyle;rounded=0;orthogonalLoop=1;jettySize=auto;html=1;" edge="1" parent="WIyWlLk6GJQsqaUBKTNV-1" source="96fxNzwvtjTMdbQjkT7S-74">
          <mxGeometry relative="1" as="geometry">
            <mxPoint x="620" y="140" as="targetPoint" />
          </mxGeometry>
        </mxCell>
        <mxCell id="96fxNzwvtjTMdbQjkT7S-74" value="追问用户变量信息" style="ellipse;whiteSpace=wrap;html=1;fontStyle=0;startSize=30;horizontal=1;" vertex="1" parent="WIyWlLk6GJQsqaUBKTNV-1">
          <mxGeometry x="520" y="100" width="80" height="80" as="geometry" />
        </mxCell>
        <mxCell id="96fxNzwvtjTMdbQjkT7S-199" style="edgeStyle=orthogonalEdgeStyle;rounded=0;orthogonalLoop=1;jettySize=auto;html=1;entryX=0.5;entryY=0;entryDx=0;entryDy=0;" edge="1" parent="WIyWlLk6GJQsqaUBKTNV-1" source="96fxNzwvtjTMdbQjkT7S-81" target="96fxNzwvtjTMdbQjkT7S-84">
          <mxGeometry relative="1" as="geometry" />
        </mxCell>
        <mxCell id="96fxNzwvtjTMdbQjkT7S-200" style="edgeStyle=orthogonalEdgeStyle;rounded=0;orthogonalLoop=1;jettySize=auto;html=1;entryX=0.5;entryY=0;entryDx=0;entryDy=0;" edge="1" parent="WIyWlLk6GJQsqaUBKTNV-1" source="96fxNzwvtjTMdbQjkT7S-81" target="96fxNzwvtjTMdbQjkT7S-82">
          <mxGeometry relative="1" as="geometry" />
        </mxCell>
        <mxCell id="96fxNzwvtjTMdbQjkT7S-81" value="联网案例搜索" style="rounded=0;whiteSpace=wrap;html=1;" vertex="1" parent="WIyWlLk6GJQsqaUBKTNV-1">
          <mxGeometry x="690" y="335" width="120" height="60" as="geometry" />
        </mxCell>
        <mxCell id="96fxNzwvtjTMdbQjkT7S-202" style="edgeStyle=orthogonalEdgeStyle;rounded=0;orthogonalLoop=1;jettySize=auto;html=1;entryX=0.5;entryY=0;entryDx=0;entryDy=0;" edge="1" parent="WIyWlLk6GJQsqaUBKTNV-1" source="96fxNzwvtjTMdbQjkT7S-82" target="96fxNzwvtjTMdbQjkT7S-109">
          <mxGeometry relative="1" as="geometry" />
        </mxCell>
        <mxCell id="96fxNzwvtjTMdbQjkT7S-82" value="正面案例" style="whiteSpace=wrap;html=1;rounded=0;" vertex="1" parent="WIyWlLk6GJQsqaUBKTNV-1">
          <mxGeometry x="590" y="440" width="120" height="30" as="geometry" />
        </mxCell>
        <mxCell id="96fxNzwvtjTMdbQjkT7S-201" style="edgeStyle=orthogonalEdgeStyle;rounded=0;orthogonalLoop=1;jettySize=auto;html=1;entryX=0.5;entryY=0;entryDx=0;entryDy=0;" edge="1" parent="WIyWlLk6GJQsqaUBKTNV-1" source="96fxNzwvtjTMdbQjkT7S-84" target="96fxNzwvtjTMdbQjkT7S-109">
          <mxGeometry relative="1" as="geometry" />
        </mxCell>
        <mxCell id="96fxNzwvtjTMdbQjkT7S-84" value="负面案例" style="whiteSpace=wrap;html=1;rounded=0;" vertex="1" parent="WIyWlLk6GJQsqaUBKTNV-1">
          <mxGeometry x="800" y="440" width="100" height="30" as="geometry" />
        </mxCell>
        <mxCell id="96fxNzwvtjTMdbQjkT7S-186" style="edgeStyle=orthogonalEdgeStyle;rounded=0;orthogonalLoop=1;jettySize=auto;html=1;entryX=0.5;entryY=0;entryDx=0;entryDy=0;" edge="1" parent="WIyWlLk6GJQsqaUBKTNV-1" source="96fxNzwvtjTMdbQjkT7S-90" target="96fxNzwvtjTMdbQjkT7S-130">
          <mxGeometry relative="1" as="geometry">
            <Array as="points">
              <mxPoint x="970" y="580" />
              <mxPoint x="1200" y="580" />
              <mxPoint x="1200" y="40" />
              <mxPoint x="1380" y="40" />
            </Array>
          </mxGeometry>
        </mxCell>
        <mxCell id="96fxNzwvtjTMdbQjkT7S-90" value="知识库检索" style="rounded=0;whiteSpace=wrap;html=1;" vertex="1" parent="WIyWlLk6GJQsqaUBKTNV-1">
          <mxGeometry x="910" y="330" width="120" height="60" as="geometry" />
        </mxCell>
        <mxCell id="96fxNzwvtjTMdbQjkT7S-214" style="edgeStyle=orthogonalEdgeStyle;rounded=0;orthogonalLoop=1;jettySize=auto;html=1;entryX=0;entryY=0.25;entryDx=0;entryDy=0;fillColor=#a20025;strokeColor=#6F0000;" edge="1" parent="WIyWlLk6GJQsqaUBKTNV-1" source="96fxNzwvtjTMdbQjkT7S-92" target="96fxNzwvtjTMdbQjkT7S-138">
          <mxGeometry relative="1" as="geometry">
            <Array as="points">
              <mxPoint x="955" y="283" />
              <mxPoint x="1155" y="283" />
            </Array>
          </mxGeometry>
        </mxCell>
        <mxCell id="96fxNzwvtjTMdbQjkT7S-92" value="经济政策" style="ellipse;shape=cloud;whiteSpace=wrap;html=1;" vertex="1" parent="WIyWlLk6GJQsqaUBKTNV-1">
          <mxGeometry x="910" y="200" width="90" height="50" as="geometry" />
        </mxCell>
        <mxCell id="96fxNzwvtjTMdbQjkT7S-215" style="edgeStyle=orthogonalEdgeStyle;rounded=0;orthogonalLoop=1;jettySize=auto;html=1;entryX=0;entryY=0.25;entryDx=0;entryDy=0;fillColor=#a20025;strokeColor=#6F0000;" edge="1" parent="WIyWlLk6GJQsqaUBKTNV-1" source="96fxNzwvtjTMdbQjkT7S-93" target="96fxNzwvtjTMdbQjkT7S-138">
          <mxGeometry relative="1" as="geometry">
            <Array as="points">
              <mxPoint x="1055" y="283" />
              <mxPoint x="1205" y="283" />
            </Array>
          </mxGeometry>
        </mxCell>
        <mxCell id="96fxNzwvtjTMdbQjkT7S-93" value="市场风险" style="ellipse;shape=cloud;whiteSpace=wrap;html=1;" vertex="1" parent="WIyWlLk6GJQsqaUBKTNV-1">
          <mxGeometry x="1010" y="180" width="90" height="50" as="geometry" />
        </mxCell>
        <mxCell id="96fxNzwvtjTMdbQjkT7S-216" style="edgeStyle=orthogonalEdgeStyle;rounded=0;orthogonalLoop=1;jettySize=auto;html=1;fillColor=#a20025;strokeColor=#6F0000;" edge="1" parent="WIyWlLk6GJQsqaUBKTNV-1" source="96fxNzwvtjTMdbQjkT7S-94">
          <mxGeometry relative="1" as="geometry">
            <mxPoint x="1310" y="280.0000000000001" as="targetPoint" />
            <Array as="points">
              <mxPoint x="1235" y="280" />
              <mxPoint x="1235" y="281" />
              <mxPoint x="1310" y="281" />
            </Array>
          </mxGeometry>
        </mxCell>
        <mxCell id="96fxNzwvtjTMdbQjkT7S-188" style="edgeStyle=orthogonalEdgeStyle;rounded=0;orthogonalLoop=1;jettySize=auto;html=1;entryX=0.5;entryY=0;entryDx=0;entryDy=0;" edge="1" parent="WIyWlLk6GJQsqaUBKTNV-1" source="96fxNzwvtjTMdbQjkT7S-100" target="96fxNzwvtjTMdbQjkT7S-130">
          <mxGeometry relative="1" as="geometry">
            <Array as="points">
              <mxPoint x="530" y="600" />
              <mxPoint x="1200" y="600" />
              <mxPoint x="1200" y="40" />
              <mxPoint x="1380" y="40" />
            </Array>
          </mxGeometry>
        </mxCell>
        <mxCell id="96fxNzwvtjTMdbQjkT7S-100" value="生成报告标题" style="rounded=0;whiteSpace=wrap;html=1;" vertex="1" parent="WIyWlLk6GJQsqaUBKTNV-1">
          <mxGeometry x="480" y="335" width="120" height="60" as="geometry" />
        </mxCell>
        <mxCell id="96fxNzwvtjTMdbQjkT7S-217" style="edgeStyle=orthogonalEdgeStyle;rounded=0;orthogonalLoop=1;jettySize=auto;html=1;entryX=0;entryY=0.25;entryDx=0;entryDy=0;fillColor=#a20025;strokeColor=#6F0000;" edge="1" parent="WIyWlLk6GJQsqaUBKTNV-1" source="96fxNzwvtjTMdbQjkT7S-101" target="96fxNzwvtjTMdbQjkT7S-138">
          <mxGeometry relative="1" as="geometry">
            <Array as="points">
              <mxPoint x="1115" y="283" />
              <mxPoint x="1243" y="283" />
            </Array>
          </mxGeometry>
        </mxCell>
        <mxCell id="96fxNzwvtjTMdbQjkT7S-101" value="对外投资合作&lt;br&gt;国别指南" style="ellipse;shape=cloud;whiteSpace=wrap;html=1;" vertex="1" parent="WIyWlLk6GJQsqaUBKTNV-1">
          <mxGeometry x="1055" y="300" width="120" height="60" as="geometry" />
        </mxCell>
        <mxCell id="96fxNzwvtjTMdbQjkT7S-125" value="" style="edgeStyle=orthogonalEdgeStyle;rounded=0;orthogonalLoop=1;jettySize=auto;html=1;entryX=0.5;entryY=0;entryDx=0;entryDy=0;" edge="1" parent="WIyWlLk6GJQsqaUBKTNV-1" source="96fxNzwvtjTMdbQjkT7S-109" target="96fxNzwvtjTMdbQjkT7S-130">
          <mxGeometry relative="1" as="geometry">
            <mxPoint x="750" y="780" as="targetPoint" />
            <Array as="points">
              <mxPoint x="1200" y="560" />
              <mxPoint x="1200" y="40" />
              <mxPoint x="1380" y="40" />
            </Array>
          </mxGeometry>
        </mxCell>
        <mxCell id="96fxNzwvtjTMdbQjkT7S-109" value="利用大模型进行&lt;br&gt;内容审查" style="shape=process;whiteSpace=wrap;html=1;backgroundOutline=1;fillColor=#0050ef;fontColor=#ffffff;strokeColor=#001DBC;" vertex="1" parent="WIyWlLk6GJQsqaUBKTNV-1">
          <mxGeometry x="690" y="520" width="120" height="60" as="geometry" />
        </mxCell>
        <mxCell id="96fxNzwvtjTMdbQjkT7S-144" value="" style="edgeStyle=orthogonalEdgeStyle;rounded=0;orthogonalLoop=1;jettySize=auto;html=1;" edge="1" parent="WIyWlLk6GJQsqaUBKTNV-1" source="96fxNzwvtjTMdbQjkT7S-130" target="96fxNzwvtjTMdbQjkT7S-138">
          <mxGeometry relative="1" as="geometry" />
        </mxCell>
        <mxCell id="96fxNzwvtjTMdbQjkT7S-130" value="大模型" style="swimlane;fontStyle=0;childLayout=stackLayout;horizontal=1;startSize=30;horizontalStack=0;resizeParent=1;resizeParentMax=0;resizeLast=0;collapsible=1;marginBottom=0;whiteSpace=wrap;html=1;fillColor=#a20025;fontColor=#ffffff;strokeColor=#6F0000;" vertex="1" parent="WIyWlLk6GJQsqaUBKTNV-1">
          <mxGeometry x="1310" y="60" width="140" height="180" as="geometry" />
        </mxCell>
        <mxCell id="96fxNzwvtjTMdbQjkT7S-131" value="背景知识" style="text;strokeColor=none;fillColor=none;align=left;verticalAlign=middle;spacingLeft=4;spacingRight=4;overflow=hidden;points=[[0,0.5],[1,0.5]];portConstraint=eastwest;rotatable=0;whiteSpace=wrap;html=1;" vertex="1" parent="96fxNzwvtjTMdbQjkT7S-130">
          <mxGeometry y="30" width="140" height="30" as="geometry" />
        </mxCell>
        <mxCell id="96fxNzwvtjTMdbQjkT7S-132" value="案例分析" style="text;strokeColor=none;fillColor=none;align=left;verticalAlign=middle;spacingLeft=4;spacingRight=4;overflow=hidden;points=[[0,0.5],[1,0.5]];portConstraint=eastwest;rotatable=0;whiteSpace=wrap;html=1;" vertex="1" parent="96fxNzwvtjTMdbQjkT7S-130">
          <mxGeometry y="60" width="140" height="30" as="geometry" />
        </mxCell>
        <mxCell id="96fxNzwvtjTMdbQjkT7S-133" value="文献引用" style="text;strokeColor=none;fillColor=none;align=left;verticalAlign=middle;spacingLeft=4;spacingRight=4;overflow=hidden;points=[[0,0.5],[1,0.5]];portConstraint=eastwest;rotatable=0;whiteSpace=wrap;html=1;" vertex="1" parent="96fxNzwvtjTMdbQjkT7S-130">
          <mxGeometry y="90" width="140" height="30" as="geometry" />
        </mxCell>
        <mxCell id="96fxNzwvtjTMdbQjkT7S-134" value="策略分析" style="text;strokeColor=none;fillColor=none;align=left;verticalAlign=middle;spacingLeft=4;spacingRight=4;overflow=hidden;points=[[0,0.5],[1,0.5]];portConstraint=eastwest;rotatable=0;whiteSpace=wrap;html=1;" vertex="1" parent="96fxNzwvtjTMdbQjkT7S-130">
          <mxGeometry y="120" width="140" height="30" as="geometry" />
        </mxCell>
        <mxCell id="96fxNzwvtjTMdbQjkT7S-135" value="风险评估" style="text;strokeColor=none;fillColor=none;align=left;verticalAlign=middle;spacingLeft=4;spacingRight=4;overflow=hidden;points=[[0,0.5],[1,0.5]];portConstraint=eastwest;rotatable=0;whiteSpace=wrap;html=1;" vertex="1" parent="96fxNzwvtjTMdbQjkT7S-130">
          <mxGeometry y="150" width="140" height="30" as="geometry" />
        </mxCell>
        <mxCell id="96fxNzwvtjTMdbQjkT7S-150" value="" style="edgeStyle=orthogonalEdgeStyle;rounded=0;orthogonalLoop=1;jettySize=auto;html=1;" edge="1" parent="WIyWlLk6GJQsqaUBKTNV-1" source="96fxNzwvtjTMdbQjkT7S-138" target="96fxNzwvtjTMdbQjkT7S-147">
          <mxGeometry relative="1" as="geometry" />
        </mxCell>
        <mxCell id="96fxNzwvtjTMdbQjkT7S-138" value="大模型" style="swimlane;fontStyle=0;childLayout=stackLayout;horizontal=1;startSize=30;horizontalStack=0;resizeParent=1;resizeParentMax=0;resizeLast=0;collapsible=1;marginBottom=0;whiteSpace=wrap;html=1;fillColor=#a20025;fontColor=#ffffff;strokeColor=#6F0000;" vertex="1" parent="WIyWlLk6GJQsqaUBKTNV-1">
          <mxGeometry x="1310" y="260" width="140" height="90" as="geometry" />
        </mxCell>
        <mxCell id="96fxNzwvtjTMdbQjkT7S-139" value="总结输出" style="text;strokeColor=none;fillColor=none;align=left;verticalAlign=middle;spacingLeft=4;spacingRight=4;overflow=hidden;points=[[0,0.5],[1,0.5]];portConstraint=eastwest;rotatable=0;whiteSpace=wrap;html=1;" vertex="1" parent="96fxNzwvtjTMdbQjkT7S-138">
          <mxGeometry y="30" width="140" height="30" as="geometry" />
        </mxCell>
        <mxCell id="96fxNzwvtjTMdbQjkT7S-140" value="路线图" style="text;strokeColor=none;fillColor=none;align=left;verticalAlign=middle;spacingLeft=4;spacingRight=4;overflow=hidden;points=[[0,0.5],[1,0.5]];portConstraint=eastwest;rotatable=0;whiteSpace=wrap;html=1;" vertex="1" parent="96fxNzwvtjTMdbQjkT7S-138">
          <mxGeometry y="60" width="140" height="30" as="geometry" />
        </mxCell>
        <mxCell id="96fxNzwvtjTMdbQjkT7S-153" value="" style="edgeStyle=orthogonalEdgeStyle;rounded=0;orthogonalLoop=1;jettySize=auto;html=1;" edge="1" parent="WIyWlLk6GJQsqaUBKTNV-1" source="96fxNzwvtjTMdbQjkT7S-147" target="96fxNzwvtjTMdbQjkT7S-152">
          <mxGeometry relative="1" as="geometry" />
        </mxCell>
        <mxCell id="96fxNzwvtjTMdbQjkT7S-147" value="文本处理汇总" style="swimlane;fontStyle=0;childLayout=stackLayout;horizontal=1;startSize=30;horizontalStack=0;resizeParent=1;resizeParentMax=0;resizeLast=0;collapsible=1;marginBottom=0;whiteSpace=wrap;html=1;fillColor=#a20025;fontColor=#ffffff;strokeColor=#6F0000;" vertex="1" parent="WIyWlLk6GJQsqaUBKTNV-1">
          <mxGeometry x="1310" y="370" width="140" height="60" as="geometry" />
        </mxCell>
        <mxCell id="96fxNzwvtjTMdbQjkT7S-148" value="所有输出" style="text;strokeColor=none;fillColor=none;align=left;verticalAlign=middle;spacingLeft=4;spacingRight=4;overflow=hidden;points=[[0,0.5],[1,0.5]];portConstraint=eastwest;rotatable=0;whiteSpace=wrap;html=1;" vertex="1" parent="96fxNzwvtjTMdbQjkT7S-147">
          <mxGeometry y="30" width="140" height="30" as="geometry" />
        </mxCell>
        <mxCell id="96fxNzwvtjTMdbQjkT7S-167" value="" style="edgeStyle=orthogonalEdgeStyle;rounded=0;orthogonalLoop=1;jettySize=auto;html=1;" edge="1" parent="WIyWlLk6GJQsqaUBKTNV-1" source="96fxNzwvtjTMdbQjkT7S-152" target="96fxNzwvtjTMdbQjkT7S-166">
          <mxGeometry relative="1" as="geometry" />
        </mxCell>
        <mxCell id="96fxNzwvtjTMdbQjkT7S-169" value="" style="edgeStyle=orthogonalEdgeStyle;rounded=0;orthogonalLoop=1;jettySize=auto;html=1;" edge="1" parent="WIyWlLk6GJQsqaUBKTNV-1" source="96fxNzwvtjTMdbQjkT7S-154" target="96fxNzwvtjTMdbQjkT7S-168">
          <mxGeometry relative="1" as="geometry" />
        </mxCell>
        <mxCell id="96fxNzwvtjTMdbQjkT7S-154" value="API接口" style="shape=hexagon;perimeter=hexagonPerimeter2;whiteSpace=wrap;html=1;fixedSize=1;fontStyle=0;startSize=30;horizontal=1;" vertex="1" parent="WIyWlLk6GJQsqaUBKTNV-1">
          <mxGeometry x="1330" y="470" width="100" height="30" as="geometry" />
        </mxCell>
        <mxCell id="96fxNzwvtjTMdbQjkT7S-155" value="直接输出" style="rounded=0;whiteSpace=wrap;html=1;" vertex="1" parent="WIyWlLk6GJQsqaUBKTNV-1">
          <mxGeometry x="1530" y="430" width="100" height="40" as="geometry" />
        </mxCell>
        <mxCell id="96fxNzwvtjTMdbQjkT7S-156" value="" style="endArrow=classic;html=1;rounded=0;entryX=0;entryY=0.5;entryDx=0;entryDy=0;" edge="1" parent="WIyWlLk6GJQsqaUBKTNV-1" target="96fxNzwvtjTMdbQjkT7S-155">
          <mxGeometry width="50" height="50" relative="1" as="geometry">
            <mxPoint x="1380" y="430" as="sourcePoint" />
            <mxPoint x="1690" y="450" as="targetPoint" />
            <Array as="points">
              <mxPoint x="1380" y="450" />
              <mxPoint x="1500" y="450" />
            </Array>
          </mxGeometry>
        </mxCell>
        <mxCell id="96fxNzwvtjTMdbQjkT7S-157" value="" style="endArrow=classic;html=1;rounded=0;entryX=0.5;entryY=0;entryDx=0;entryDy=0;" edge="1" parent="WIyWlLk6GJQsqaUBKTNV-1" target="96fxNzwvtjTMdbQjkT7S-154">
          <mxGeometry width="50" height="50" relative="1" as="geometry">
            <mxPoint x="1380" y="430" as="sourcePoint" />
            <mxPoint x="1450" y="400" as="targetPoint" />
          </mxGeometry>
        </mxCell>
        <mxCell id="96fxNzwvtjTMdbQjkT7S-170" style="edgeStyle=orthogonalEdgeStyle;rounded=0;orthogonalLoop=1;jettySize=auto;html=1;entryX=0.5;entryY=1;entryDx=0;entryDy=0;" edge="1" parent="WIyWlLk6GJQsqaUBKTNV-1" source="96fxNzwvtjTMdbQjkT7S-166" target="96fxNzwvtjTMdbQjkT7S-155">
          <mxGeometry relative="1" as="geometry">
            <Array as="points">
              <mxPoint x="1260" y="580" />
              <mxPoint x="1580" y="580" />
            </Array>
          </mxGeometry>
        </mxCell>
        <mxCell id="96fxNzwvtjTMdbQjkT7S-166" value="PDF" style="whiteSpace=wrap;html=1;fontStyle=0;startSize=30;horizontal=1;" vertex="1" parent="WIyWlLk6GJQsqaUBKTNV-1">
          <mxGeometry x="1220" y="520" width="80" height="20" as="geometry" />
        </mxCell>
        <mxCell id="96fxNzwvtjTMdbQjkT7S-171" style="edgeStyle=orthogonalEdgeStyle;rounded=0;orthogonalLoop=1;jettySize=auto;html=1;entryX=0.5;entryY=1;entryDx=0;entryDy=0;" edge="1" parent="WIyWlLk6GJQsqaUBKTNV-1" source="96fxNzwvtjTMdbQjkT7S-168" target="96fxNzwvtjTMdbQjkT7S-155">
          <mxGeometry relative="1" as="geometry" />
        </mxCell>
        <mxCell id="96fxNzwvtjTMdbQjkT7S-168" value="PPT" style="whiteSpace=wrap;html=1;fontStyle=0;startSize=30;horizontal=1;" vertex="1" parent="WIyWlLk6GJQsqaUBKTNV-1">
          <mxGeometry x="1340" y="520" width="80" height="20" as="geometry" />
        </mxCell>
        <mxCell id="96fxNzwvtjTMdbQjkT7S-152" value="API接口" style="shape=hexagon;perimeter=hexagonPerimeter2;whiteSpace=wrap;html=1;fixedSize=1;fontStyle=0;startSize=30;horizontal=1;" vertex="1" parent="WIyWlLk6GJQsqaUBKTNV-1">
          <mxGeometry x="1210" y="470" width="100" height="30" as="geometry" />
        </mxCell>
        <mxCell id="96fxNzwvtjTMdbQjkT7S-198" style="edgeStyle=orthogonalEdgeStyle;rounded=0;orthogonalLoop=1;jettySize=auto;html=1;entryX=0.442;entryY=-0.057;entryDx=0;entryDy=0;entryPerimeter=0;" edge="1" parent="WIyWlLk6GJQsqaUBKTNV-1" source="96fxNzwvtjTMdbQjkT7S-66" target="96fxNzwvtjTMdbQjkT7S-90">
          <mxGeometry relative="1" as="geometry">
            <Array as="points">
              <mxPoint x="690" y="300" />
              <mxPoint x="963" y="300" />
            </Array>
          </mxGeometry>
        </mxCell>
        <mxCell id="96fxNzwvtjTMdbQjkT7S-204" value="" style="endArrow=none;dashed=1;html=1;rounded=0;exitX=0.648;exitY=1.027;exitDx=0;exitDy=0;exitPerimeter=0;entryX=0.566;entryY=-0.021;entryDx=0;entryDy=0;entryPerimeter=0;" edge="1" parent="WIyWlLk6GJQsqaUBKTNV-1" source="96fxNzwvtjTMdbQjkT7S-92" target="96fxNzwvtjTMdbQjkT7S-90">
          <mxGeometry width="50" height="50" relative="1" as="geometry">
            <mxPoint x="1150" y="370" as="sourcePoint" />
            <mxPoint x="1200" y="320" as="targetPoint" />
          </mxGeometry>
        </mxCell>
        <mxCell id="96fxNzwvtjTMdbQjkT7S-205" value="" style="endArrow=none;dashed=1;html=1;rounded=0;exitX=0.484;exitY=0.992;exitDx=0;exitDy=0;exitPerimeter=0;entryX=0.616;entryY=-0.007;entryDx=0;entryDy=0;entryPerimeter=0;" edge="1" parent="WIyWlLk6GJQsqaUBKTNV-1" source="96fxNzwvtjTMdbQjkT7S-93" target="96fxNzwvtjTMdbQjkT7S-90">
          <mxGeometry width="50" height="50" relative="1" as="geometry">
            <mxPoint x="1150" y="370" as="sourcePoint" />
            <mxPoint x="1200" y="320" as="targetPoint" />
          </mxGeometry>
        </mxCell>
        <mxCell id="96fxNzwvtjTMdbQjkT7S-206" value="" style="endArrow=none;dashed=1;html=1;rounded=0;exitX=0.13;exitY=0.77;exitDx=0;exitDy=0;exitPerimeter=0;entryX=0.624;entryY=0.008;entryDx=0;entryDy=0;entryPerimeter=0;" edge="1" parent="WIyWlLk6GJQsqaUBKTNV-1" source="96fxNzwvtjTMdbQjkT7S-94" target="96fxNzwvtjTMdbQjkT7S-90">
          <mxGeometry width="50" height="50" relative="1" as="geometry">
            <mxPoint x="1150" y="370" as="sourcePoint" />
            <mxPoint x="1200" y="320" as="targetPoint" />
          </mxGeometry>
        </mxCell>
        <mxCell id="96fxNzwvtjTMdbQjkT7S-207" value="" style="endArrow=none;dashed=1;html=1;rounded=0;exitX=0.25;exitY=0.25;exitDx=0;exitDy=0;exitPerimeter=0;entryX=1.015;entryY=0.124;entryDx=0;entryDy=0;entryPerimeter=0;" edge="1" parent="WIyWlLk6GJQsqaUBKTNV-1" source="96fxNzwvtjTMdbQjkT7S-101" target="96fxNzwvtjTMdbQjkT7S-90">
          <mxGeometry width="50" height="50" relative="1" as="geometry">
            <mxPoint x="1150" y="370" as="sourcePoint" />
            <mxPoint x="1200" y="320" as="targetPoint" />
          </mxGeometry>
        </mxCell>
        <mxCell id="96fxNzwvtjTMdbQjkT7S-208" style="edgeStyle=orthogonalEdgeStyle;rounded=0;orthogonalLoop=1;jettySize=auto;html=1;entryX=-0.018;entryY=0.068;entryDx=0;entryDy=0;entryPerimeter=0;fillColor=#008a00;strokeColor=#005700;" edge="1" parent="WIyWlLk6GJQsqaUBKTNV-1" source="96fxNzwvtjTMdbQjkT7S-92" target="96fxNzwvtjTMdbQjkT7S-130">
          <mxGeometry relative="1" as="geometry">
            <Array as="points">
              <mxPoint x="955" y="72" />
            </Array>
          </mxGeometry>
        </mxCell>
        <mxCell id="96fxNzwvtjTMdbQjkT7S-210" style="edgeStyle=orthogonalEdgeStyle;rounded=0;orthogonalLoop=1;jettySize=auto;html=1;entryX=0.013;entryY=0.073;entryDx=0;entryDy=0;entryPerimeter=0;fillColor=#008a00;strokeColor=#005700;" edge="1" parent="WIyWlLk6GJQsqaUBKTNV-1" source="96fxNzwvtjTMdbQjkT7S-93" target="96fxNzwvtjTMdbQjkT7S-130">
          <mxGeometry relative="1" as="geometry">
            <Array as="points">
              <mxPoint x="1055" y="73" />
            </Array>
          </mxGeometry>
        </mxCell>
        <mxCell id="96fxNzwvtjTMdbQjkT7S-211" style="edgeStyle=orthogonalEdgeStyle;rounded=0;orthogonalLoop=1;jettySize=auto;html=1;entryX=0;entryY=0.056;entryDx=0;entryDy=0;entryPerimeter=0;fillColor=#008a00;strokeColor=#005700;" edge="1" parent="WIyWlLk6GJQsqaUBKTNV-1" source="96fxNzwvtjTMdbQjkT7S-94" target="96fxNzwvtjTMdbQjkT7S-130">
          <mxGeometry relative="1" as="geometry">
            <Array as="points">
              <mxPoint x="1115" y="130" />
              <mxPoint x="1280" y="130" />
              <mxPoint x="1280" y="70" />
            </Array>
          </mxGeometry>
        </mxCell>
        <mxCell id="96fxNzwvtjTMdbQjkT7S-213" style="edgeStyle=orthogonalEdgeStyle;rounded=0;orthogonalLoop=1;jettySize=auto;html=1;entryX=0.007;entryY=0.068;entryDx=0;entryDy=0;entryPerimeter=0;fillColor=#008a00;strokeColor=#005700;" edge="1" parent="WIyWlLk6GJQsqaUBKTNV-1" source="96fxNzwvtjTMdbQjkT7S-101" target="96fxNzwvtjTMdbQjkT7S-130">
          <mxGeometry relative="1" as="geometry">
            <Array as="points">
              <mxPoint x="1280" y="330" />
              <mxPoint x="1280" y="72" />
            </Array>
          </mxGeometry>
        </mxCell>
        <mxCell id="96fxNzwvtjTMdbQjkT7S-94" value="法律文件" style="ellipse;shape=cloud;whiteSpace=wrap;html=1;" vertex="1" parent="WIyWlLk6GJQsqaUBKTNV-1">
          <mxGeometry x="1070" y="240" width="90" height="50" as="geometry" />
        </mxCell>
      </root>
    </mxGraphModel>
  </diagram>
</mxfile>
